# xmcd
#
# Track frame offsets:
#	183
#	18843
#	38123
#	60690
#	78018
#	94968
#	111620
#	129333
#	149818
#	166213
#	185943
#	206790
#	222258
#	238460
#
# Disc length: 3449 seconds
#
# Revision: 1
# Processed by: cddbd v1.4PL0 Copyright (c) Steve Scherf et al.
# Submitted via: audiograbber 1.81.02
#
DISCID=d70d770e
DTITLE=ELYMAR SANTOS - ATO DE AMOR
DYEAR=1990
DGENRE=Country
TTITLE0=ARTISTA
TTITLE1=ESPELHO
TTITLE2=VOLTA CORAÇÃO
TTITLE3=SOU LOUCO POR VOCE
TTITLE4=MI CANTO
TTITLE5=QUANDO
TTITLE6=JURAS E MANIAS
TTITLE7=AMOR ATEU
TTITLE8=POR ESCRITO
TTITLE9=DEVOLVI DESCASO
TTITLE10=ATO DE AMOR
TTITLE11=OS SERTÕES
TTITLE12=NUNCA PENSEI
TTITLE13=TRAVESSIA - MINHA HISTÓRIA, ANDANÇA
EXTD=
EXTT0=
EXTT1=
EXTT2=
EXTT3=
EXTT4=
EXTT5=
EXTT6=
EXTT7=
EXTT8=
EXTT9=
EXTT10=
EXTT11=
EXTT12=
EXTT13=
PLAYORDER=
